REM DIRINDEX 1\2\4\8,1\2\4\9,1\2\4\10,1\2\5\11,1\2\5\12,1\2\5\13,1\2\5\14,1\2\5\15,1\3\6\16,1\3\6\17,1\3\6\18,1\3\7\19,1\3\7\20,1\3\7\21,1\3\7\22,1\3\7\23
REM DIRNAME "folder01","folder02","folder03","folder04","folder05","folder06","folder07","folder08","folder09","folder10","folder11","folder12","folder13","folder14","folder15","folder16","folder17","folder18","folder19","folder20","folder21","folder22","folder23"
TITLE ""
FILE "LR_black_phrase_E_S05.mp3" MP3
  TRACK 01 AUDIO
    TITLE "0:"
    INDEX 01 00:00:00
  TRACK 02 AUDIO
    TITLE "16:cjc171_10641"
    INDEX 01 00:00:14
  TRACK 03 AUDIO
    TITLE "0:"
    INDEX 01 00:01:33
  TRACK 04 AUDIO
    TITLE "17:cjc171_10642"
    INDEX 01 00:01:63
  TRACK 05 AUDIO
    TITLE "0:"
    INDEX 01 00:03:42
  TRACK 06 AUDIO
    TITLE "18:cjc171_10643"
    INDEX 01 00:04:22
  TRACK 07 AUDIO
    TITLE "0:"
    INDEX 01 00:06:03
  TRACK 08 AUDIO
    TITLE "16:cjc171_10644"
    INDEX 01 00:07:04
  TRACK 09 AUDIO
    TITLE "0:"
    INDEX 01 00:08:10
  TRACK 10 AUDIO
    TITLE "17:cjc171_10645"
    INDEX 01 00:08:41
  TRACK 11 AUDIO
    TITLE "0:"
    INDEX 01 00:11:02
  TRACK 12 AUDIO
    TITLE "18:cjc171_10646"
    INDEX 01 00:11:57
  TRACK 13 AUDIO
    TITLE "0:"
    INDEX 01 00:14:18
  TRACK 14 AUDIO
    TITLE "16:cjc171_10647"
    INDEX 01 00:15:20
  TRACK 15 AUDIO
    TITLE "0:"
    INDEX 01 00:16:50
  TRACK 16 AUDIO
    TITLE "17:cjc171_10648"
    INDEX 01 00:16:72
  TRACK 17 AUDIO
    TITLE "0:"
    INDEX 01 00:18:71
  TRACK 18 AUDIO
    TITLE "18:cjc171_10649"
    INDEX 01 00:19:39
  TRACK 19 AUDIO
    TITLE "0:"
    INDEX 01 00:21:40
  TRACK 20 AUDIO
    TITLE "16:cjc171_10650"
    INDEX 01 00:22:33
  TRACK 21 AUDIO
    TITLE "0:"
    INDEX 01 00:23:52
  TRACK 22 AUDIO
    TITLE "17:cjc171_10651"
    INDEX 01 00:23:74
  TRACK 23 AUDIO
    TITLE "0:"
    INDEX 01 00:26:18
  TRACK 24 AUDIO
    TITLE "18:cjc171_10652"
    INDEX 01 00:26:63
  TRACK 25 AUDIO
    TITLE "0:"
    INDEX 01 00:29:06
  TRACK 26 AUDIO
    TITLE "16:cjc171_10653"
    INDEX 01 00:30:06
  TRACK 27 AUDIO
    TITLE "0:"
    INDEX 01 00:31:17
  TRACK 28 AUDIO
    TITLE "17:cjc171_10654"
    INDEX 01 00:31:48
  TRACK 29 AUDIO
    TITLE "0:"
    INDEX 01 00:33:61
  TRACK 30 AUDIO
    TITLE "18:cjc171_10655"
    INDEX 01 00:34:43
  TRACK 31 AUDIO
    TITLE "0:"
    INDEX 01 00:36:55
  TRACK 32 AUDIO
    TITLE "16:cjc171_10656"
    INDEX 01 00:37:57
  TRACK 33 AUDIO
    TITLE "0:"
    INDEX 01 00:39:01
  TRACK 34 AUDIO
    TITLE "17:cjc171_10657"
    INDEX 01 00:39:30
  TRACK 35 AUDIO
    TITLE "0:"
    INDEX 01 00:41:37
  TRACK 36 AUDIO
    TITLE "18:cjc171_10658"
    INDEX 01 00:42:19
  TRACK 37 AUDIO
    TITLE "0:"
    INDEX 01 00:44:23
  TRACK 38 AUDIO
    TITLE "16:cjc171_10659"
    INDEX 01 00:45:25
  TRACK 39 AUDIO
    TITLE "0:"
    INDEX 01 00:46:44
  TRACK 40 AUDIO
    TITLE "17:cjc171_10660"
    INDEX 01 00:46:67
  TRACK 41 AUDIO
    TITLE "0:"
    INDEX 01 00:49:09
  TRACK 42 AUDIO
    TITLE "18:cjc171_10661"
    INDEX 01 00:49:56
  TRACK 43 AUDIO
    TITLE "0:"
    INDEX 01 00:51:70
  TRACK 44 AUDIO
    TITLE "16:cjc171_10662"
    INDEX 01 00:52:68
  TRACK 45 AUDIO
    TITLE "0:"
    INDEX 01 00:54:06
  TRACK 46 AUDIO
    TITLE "17:cjc171_10663"
    INDEX 01 00:54:28
  TRACK 47 AUDIO
    TITLE "0:"
    INDEX 01 00:56:03
  TRACK 48 AUDIO
    TITLE "18:cjc171_10664"
    INDEX 01 00:56:48
  TRACK 49 AUDIO
    TITLE "0:"
    INDEX 01 00:58:23
  TRACK 50 AUDIO
    TITLE "16:cjc171_10665"
    INDEX 01 00:59:23
  TRACK 51 AUDIO
    TITLE "0:"
    INDEX 01 01:00:26
  TRACK 52 AUDIO
    TITLE "17:cjc171_10666"
    INDEX 01 01:00:56
  TRACK 53 AUDIO
    TITLE "0:"
    INDEX 01 01:02:47
  TRACK 54 AUDIO
    TITLE "18:cjc171_10667"
    INDEX 01 01:03:25
  TRACK 55 AUDIO
    TITLE "0:"
    INDEX 01 01:05:18
  TRACK 56 AUDIO
    TITLE "16:cjc171_10668"
    INDEX 01 01:06:19
  TRACK 57 AUDIO
    TITLE "0:"
    INDEX 01 01:07:36
  TRACK 58 AUDIO
    TITLE "17:cjc171_10669"
    INDEX 01 01:07:65
  TRACK 59 AUDIO
    TITLE "0:"
    INDEX 01 01:09:62
  TRACK 60 AUDIO
    TITLE "18:cjc171_10670"
    INDEX 01 01:10:42
  TRACK 61 AUDIO
    TITLE "0:"
    INDEX 01 01:12:41
  TRACK 62 AUDIO
    TITLE "16:cjc171_10671"
    INDEX 01 01:13:41
  TRACK 63 AUDIO
    TITLE "0:"
    INDEX 01 01:14:58
  TRACK 64 AUDIO
    TITLE "17:cjc171_10672"
    INDEX 01 01:15:02
  TRACK 65 AUDIO
    TITLE "0:"
    INDEX 01 01:17:54
  TRACK 66 AUDIO
    TITLE "18:cjc171_10673"
    INDEX 01 01:18:24
  TRACK 67 AUDIO
    TITLE "0:"
    INDEX 01 01:21:01
  TRACK 68 AUDIO
    TITLE "16:cjc171_10674"
    INDEX 01 01:21:73
  TRACK 69 AUDIO
    TITLE "0:"
    INDEX 01 01:23:23
  TRACK 70 AUDIO
    TITLE "17:cjc171_10675"
    INDEX 01 01:23:45
  TRACK 71 AUDIO
    TITLE "0:"
    INDEX 01 01:25:42
  TRACK 72 AUDIO
    TITLE "18:cjc171_10676"
    INDEX 01 01:26:16
  TRACK 73 AUDIO
    TITLE "0:"
    INDEX 01 01:28:13
  TRACK 74 AUDIO
    TITLE "16:cjc171_10677"
    INDEX 01 01:29:14
  TRACK 75 AUDIO
    TITLE "0:"
    INDEX 01 01:30:29
  TRACK 76 AUDIO
    TITLE "17:cjc171_10678"
    INDEX 01 01:30:57
  TRACK 77 AUDIO
    TITLE "0:"
    INDEX 01 01:32:56
  TRACK 78 AUDIO
    TITLE "18:cjc171_10679"
    INDEX 01 01:33:35
  TRACK 79 AUDIO
    TITLE "0:"
    INDEX 01 01:35:32
  TRACK 80 AUDIO
    TITLE "16:cjc171_10680"
    INDEX 01 01:36:38
  TRACK 81 AUDIO
    TITLE "0:"
    INDEX 01 01:37:49
  TRACK 82 AUDIO
    TITLE "17:cjc171_10681"
    INDEX 01 01:38:05
  TRACK 83 AUDIO
    TITLE "0:"
    INDEX 01 01:39:75
  TRACK 84 AUDIO
    TITLE "18:cjc171_10682"
    INDEX 01 01:40:53
  TRACK 85 AUDIO
    TITLE "0:"
    INDEX 01 01:42:50
  TRACK 86 AUDIO
    TITLE "16:cjc171_10683"
    INDEX 01 01:43:52
  TRACK 87 AUDIO
    TITLE "0:"
    INDEX 01 01:44:72
  TRACK 88 AUDIO
    TITLE "17:cjc171_10684"
    INDEX 01 01:45:19
  TRACK 89 AUDIO
    TITLE "0:"
    INDEX 01 01:47:43
  TRACK 90 AUDIO
    TITLE "18:cjc171_10685"
    INDEX 01 01:48:12
  TRACK 91 AUDIO
    TITLE "0:"
    INDEX 01 01:50:36
  TRACK 92 AUDIO
    TITLE "16:cjc171_10686"
    INDEX 01 01:51:31
  TRACK 93 AUDIO
    TITLE "0:"
    INDEX 01 01:52:56
  TRACK 94 AUDIO
    TITLE "17:cjc171_10687"
    INDEX 01 01:53:03
  TRACK 95 AUDIO
    TITLE "0:"
    INDEX 01 01:55:25
  TRACK 96 AUDIO
    TITLE "18:cjc171_10688"
    INDEX 01 01:55:66
  TRACK 97 AUDIO
    TITLE "0:"
    INDEX 01 01:58:14
  TRACK 98 AUDIO
    TITLE "16:cjc171_10689"
    INDEX 01 01:59:13
  TRACK 99 AUDIO
    TITLE "0:"
    INDEX 01 02:00:15
  TRACK 100 AUDIO
    TITLE "17:cjc171_10690"
    INDEX 01 02:00:46
  TRACK 101 AUDIO
    TITLE "0:"
    INDEX 01 02:02:25
  TRACK 102 AUDIO
    TITLE "18:cjc171_10691"
    INDEX 01 02:03:09
  TRACK 103 AUDIO
    TITLE "0:"
    INDEX 01 02:04:63
  TRACK 104 AUDIO
    TITLE "16:cjc171_10692"
    INDEX 01 02:05:69
  TRACK 105 AUDIO
    TITLE "0:"
    INDEX 01 02:07:07
  TRACK 106 AUDIO
    TITLE "17:cjc171_10693"
    INDEX 01 02:07:36
  TRACK 107 AUDIO
    TITLE "0:"
    INDEX 01 02:09:18
  TRACK 108 AUDIO
    TITLE "18:cjc171_10694"
    INDEX 01 02:09:72
  TRACK 109 AUDIO
    TITLE "0:"
    INDEX 01 02:11:54
  TRACK 110 AUDIO
    TITLE "16:cjc171_10695"
    INDEX 01 02:12:53
  TRACK 111 AUDIO
    TITLE "0:"
    INDEX 01 02:13:60
  TRACK 112 AUDIO
    TITLE "17:cjc171_10696"
    INDEX 01 02:14:05
  TRACK 113 AUDIO
    TITLE "0:"
    INDEX 01 02:15:69
  TRACK 114 AUDIO
    TITLE "18:cjc171_10697"
    INDEX 01 02:16:41
  TRACK 115 AUDIO
    TITLE "0:"
    INDEX 01 02:18:30
  TRACK 116 AUDIO
    TITLE "16:cjc171_10698"
    INDEX 01 02:19:30
  TRACK 117 AUDIO
    TITLE "0:"
    INDEX 01 02:20:53
  TRACK 118 AUDIO
    TITLE "17:cjc171_10699"
    INDEX 01 02:20:72
  TRACK 119 AUDIO
    TITLE "0:"
    INDEX 01 02:22:71
  TRACK 120 AUDIO
    TITLE "18:cjc171_10700"
    INDEX 01 02:23:41
  TRACK 121 AUDIO
    TITLE "0:"
    INDEX 01 02:25:40
